# xmcd
# Copyright (C) 1995-1998 Ti Kan
#
# Track frame offsets:
#       150
#       13330
#       31660
#       46715
#       65374
#       85157
#       98674
#       114704
#       133169
#       147304
#       162137
#       181702
#       196674
#
# Disc length: 2962 seconds
#
# Revision: 0
# Processed by: cddbd v1.5.2PL0 Copyright (c) Steve Scherf et al.
# Submitted via: CD-Import v1.0
#
DISCID=a00b900d
DTITLE=Belle and Sebastian - The Life Pursuit
DYEAR=2005
DGENRE=
TTITLE0=Act Of The Apostle Part 1
TTITLE1=Another Sunny Day
TTITLE2=White Collar Boy
TTITLE3=The Blues Are Still Blue
TTITLE4=Dress Up In You
TTITLE5=Sukie In The Graveyard
TTITLE6=We Are The Sleepyheads
TTITLE7=Song For Sunshine
TTITLE8=Funny Little Frog
TTITLE9=To Be Myself Completely
TTITLE10=Act Of The Apostle Part 2
TTITLE11=For The Price Of A Cup Of A Tea
TTITLE12=Mornington Crescent
EXTD=
EXTT0=
EXTT1=
EXTT2=
EXTT3=
EXTT4=
EXTT5=
EXTT6=
EXTT7=
EXTT8=
EXTT9=
EXTT10=
EXTT11=
EXTT12=
PLAYORDER=
